<svg id="Capa_1" data-name="Capa 1" xmlns="http://www.w3.org/2000/svg" viewBox="0 0 32.09 32.09"><defs><style>.cls-1{fill:#113f67;stroke:#000;}.cls-1,.cls-2,.cls-3{stroke-miterlimit:10;}.cls-1,.cls-2{stroke-width:0.25px;}.cls-2,.cls-3{fill:none;stroke:#fff;}.cls-3{stroke-width:0.5px;}</style></defs><title>ahorcado</title><rect class="cls-1" x="0.13" y="0.13" width="31.84" height="31.84"/><line class="cls-2" x1="5.04" y1="23.04" x2="17.74" y2="23.04"/><line class="cls-2" x1="11.39" y1="23.04" x2="11.39" y2="3.22"/><path class="cls-2" d="M11.14,3.13H21.51" transform="translate(0.13 0.13)"/><line class="cls-2" x1="21.55" y1="3.26" x2="21.55" y2="8.18"/><circle class="cls-2" cx="21.53" cy="10.61" r="2.42"/><line class="cls-2" x1="21.53" y1="13.03" x2="21.53" y2="17.29"/><line class="cls-2" x1="21.5" y1="14.24" x2="18.98" y2="15.85"/><line class="cls-2" x1="21.52" y1="14.22" x2="23.88" y2="16.1"/><line class="cls-2" x1="21.51" y1="17.05" x2="19.42" y2="19.57"/><line class="cls-2" x1="21.49" y1="16.99" x2="23.53" y2="19.63"/><line class="cls-3" x1="10.3" y1="27.48" x2="7.24" y2="27.48"/><line class="cls-3" x1="24.99" y1="27.48" x2="21.93" y2="27.48"/><line class="cls-3" x1="21.37" y1="27.48" x2="18.32" y2="27.48"/><line class="cls-3" x1="17.71" y1="27.48" x2="14.66" y2="27.48"/><line class="cls-3" x1="14.04" y1="27.48" x2="10.98" y2="27.48"/><line class="cls-2" x1="11.51" y1="6.18" x2="14.53" y2="3.26"/></svg>